  <svg width="26" height="26" viewBox="0 0 29 29" fill="none" xmlns="http://www.w3.org/2000/svg">
                                                <path d="M10.2767 23.9422C19.3049 23.9422 24.2436 16.4873 24.2436 10.0338C24.2436 9.82515 24.2436 9.61356 24.2347 9.40494C25.1962 8.71129 26.026 7.8525 26.6854 6.86882C25.7872 7.26347 24.8354 7.52357 23.8609 7.64068C24.8874 7.02921 25.6562 6.0671 26.0245 4.93319C25.06 5.50259 24.0044 5.90231 22.9039 6.11483C22.1641 5.32959 21.185 4.80939 20.1184 4.63481C19.0519 4.46023 17.9573 4.64102 17.0043 5.14916C16.0512 5.6573 15.2929 6.46445 14.8468 7.44557C14.4007 8.42669 14.2917 9.52703 14.5366 10.5762C12.585 10.4786 10.6757 9.97336 8.93258 9.09313C7.18949 8.2129 5.65152 6.97736 4.41843 5.46664C3.79244 6.5441 3.6014 7.8186 3.88411 9.03133C4.16681 10.2441 4.90207 11.3041 5.94057 11.9962C5.16237 11.9699 4.40127 11.7616 3.71866 11.3883V11.4553C3.72001 12.584 4.11237 13.6777 4.82943 14.5513C5.54649 15.425 6.54427 16.0252 7.6541 16.2504C7.23284 16.3661 6.79768 16.4237 6.36073 16.4218C6.05269 16.4227 5.74527 16.3943 5.44266 16.3368C5.75634 17.3085 6.36712 18.158 7.18946 18.7664C8.01179 19.3748 9.00449 19.7117 10.0285 19.7298C8.28891 21.0914 6.14004 21.8299 3.928 21.8263C3.53822 21.828 3.14872 21.8056 2.76172 21.7593C5.00682 23.1857 7.61418 23.9431 10.2767 23.9422Z" fill="white" />
                                            </svg>