<svg width="20" height="20" viewBox="0 0 26 26" fill="none" xmlns="http://www.w3.org/2000/svg">
                        <path fill-rule="evenodd" clip-rule="evenodd" d="M1.85854 0.16626C0.836187 0.16626 0.00683594 0.967596 0.00683594 1.95483V23.3469C0.00683594 24.3342 0.836285 25.1349 1.85854 25.1349H23.2099C24.2326 25.1349 25.0616 24.3341 25.0616 23.3466V1.95483C25.0616 0.967596 24.2326 0.16626 23.2099 0.16626H1.85854ZM7.62053 9.82081V21.0618H3.87132V9.82081H7.62053ZM7.86765 6.34442C7.86765 7.42314 7.05386 8.28632 5.74671 8.28632L5.72214 8.28622C4.46383 8.28622 3.65033 7.42304 3.65033 6.34432C3.65033 5.24112 4.48839 4.40204 5.77157 4.40204C7.05386 4.40204 7.84318 5.24112 7.86765 6.34442ZM13.4447 21.0618H9.69576C9.69576 21.0618 9.7449 10.8757 9.69596 9.8212H13.445V11.4123C13.9433 10.6465 14.8353 9.55728 16.8239 9.55728C19.2906 9.55728 21.1399 11.1639 21.1399 14.6165V21.0618H17.3911V15.0488C17.3911 13.5375 16.8482 12.5068 15.4919 12.5068C14.456 12.5068 13.8391 13.2019 13.5682 13.8734C13.4691 14.1131 13.4447 14.4495 13.4447 14.785V21.0618Z" fill="white"></path>
                      </svg>