 <svg width="20" height="20" viewBox="0 0 24 24" fill="none" xmlns="http://www.w3.org/2000/svg">
     <path d="M11.8952 0.119629C15.0549 0.119629 15.4492 0.131218 16.6889 0.189166C17.9274 0.247114 18.7706 0.44066 19.5125 0.728081C20.2801 1.02246 20.9267 1.42114 21.5733 2.06436C22.1646 2.64372 22.6222 3.34453 22.9142 4.11803C23.2014 4.85629 23.3968 5.69769 23.4549 6.93198C23.5096 8.16742 23.5247 8.56031 23.5247 11.7092C23.5247 14.8581 23.5131 15.251 23.4549 16.4864C23.3968 17.7207 23.2014 18.5609 22.9142 19.3004C22.623 20.0743 22.1654 20.7753 21.5733 21.354C20.9918 21.9432 20.2886 22.3991 19.5125 22.6903C18.7717 22.9766 17.9274 23.1713 16.6889 23.2292C15.4492 23.2837 15.0549 23.2988 11.8952 23.2988C8.73542 23.2988 8.34118 23.2872 7.10147 23.2292C5.86292 23.1713 5.01978 22.9766 4.27782 22.6903C3.50134 22.4 2.79799 21.9439 2.21706 21.354C1.62559 20.7748 1.168 20.0739 0.876176 19.3004C0.587763 18.5621 0.39355 17.7207 0.335402 16.4864C0.280743 15.251 0.265625 14.8581 0.265625 11.7092C0.265625 8.56031 0.277254 8.16742 0.335402 6.93198C0.39355 5.69653 0.587763 4.85744 0.876176 4.11803C1.16719 3.34405 1.62489 2.64305 2.21706 2.06436C2.79816 1.47472 3.50146 1.01867 4.27782 0.728081C5.01978 0.44066 5.86176 0.247114 7.10147 0.189166C8.34118 0.134695 8.73542 0.119629 11.8952 0.119629ZM11.8952 5.91441C10.353 5.91441 8.87399 6.52493 7.7835 7.61167C6.69302 8.6984 6.0804 10.1723 6.0804 11.7092C6.0804 13.2461 6.69302 14.72 7.7835 15.8067C8.87399 16.8935 10.353 17.504 11.8952 17.504C13.4373 17.504 14.9164 16.8935 16.0068 15.8067C17.0973 14.72 17.7099 13.2461 17.7099 11.7092C17.7099 10.1723 17.0973 8.6984 16.0068 7.61167C14.9164 6.52493 13.4373 5.91441 11.8952 5.91441V5.91441ZM19.4544 5.62467C19.4544 5.24046 19.3012 4.87197 19.0286 4.60029C18.756 4.32861 18.3862 4.17598 18.0007 4.17598C17.6151 4.17598 17.2454 4.32861 16.9728 4.60029C16.7001 4.87197 16.547 5.24046 16.547 5.62467C16.547 6.00889 16.7001 6.37737 16.9728 6.64906C17.2454 6.92074 17.6151 7.07337 18.0007 7.07337C18.3862 7.07337 18.756 6.92074 19.0286 6.64906C19.3012 6.37737 19.4544 6.00889 19.4544 5.62467ZM11.8952 8.23233C12.8205 8.23233 13.7079 8.59864 14.3622 9.25068C15.0165 9.90272 15.384 10.7871 15.384 11.7092C15.384 12.6313 15.0165 13.5157 14.3622 14.1677C13.7079 14.8198 12.8205 15.1861 11.8952 15.1861C10.9699 15.1861 10.0825 14.8198 9.42817 14.1677C8.77388 13.5157 8.40631 12.6313 8.40631 11.7092C8.40631 10.7871 8.77388 9.90272 9.42817 9.25068C10.0825 8.59864 10.9699 8.23233 11.8952 8.23233V8.23233Z" fill="white" />
 </svg>