<svg xmlns="http://www.w3.org/2000/svg" width="1440" height="312" viewBox="0 0 1440 312" fill="none"><g clip-path="url(#clip0_1_316)"><rect width="1440" height="312" transform="matrix(-1 0 0 1 1440 0)" fill="#37CCAB"/><mask id="mask0_1_316" style="mask-type:alpha" maskUnits="userSpaceOnUse" x="753" y="0" width="687" height="312"><rect width="687" height="312" transform="matrix(-1 0 0 1 1440 0)" fill="#E0FF22"/></mask><g mask="url(#mask0_1_316)"><ellipse cx="200.846" cy="199.559" rx="200.846" ry="199.559" transform="matrix(4.37114e-08 1 1 -4.37114e-08 983.145 -44.4026)" fill="url(#paint0_linear_1_316)"/><ellipse cx="200.846" cy="199.559" rx="200.846" ry="199.559" transform="matrix(4.37114e-08 1 1 -4.37114e-08 771.243 -44.4026)" fill="url(#paint1_linear_1_316)"/><ellipse cx="200.846" cy="199.559" rx="200.846" ry="199.559" transform="matrix(4.37114e-08 1 1 -4.37114e-08 1173.51 -44.4026)" fill="url(#paint2_linear_1_316)"/><ellipse cx="200.846" cy="199.559" rx="200.846" ry="199.559" transform="matrix(4.37114e-08 1 1 -4.37114e-08 1363.88 -44.4026)" fill="url(#paint3_linear_1_316)"/></g><rect width="1440" height="312" transform="matrix(-1 0 0 1 1440 0)" fill="#37CCAB"/><mask id="mask1_1_316" style="mask-type:alpha" maskUnits="userSpaceOnUse" x="753" y="0" width="687" height="312"><rect width="687" height="312" transform="matrix(-1 0 0 1 1440 0)" fill="#E0FF22"/></mask><g mask="url(#mask1_1_316)"><ellipse cx="200.846" cy="199.559" rx="200.846" ry="199.559" transform="matrix(4.37114e-08 1 1 -4.37114e-08 983.145 -44.4026)" fill="url(#paint4_linear_1_316)"/><ellipse cx="200.846" cy="199.559" rx="200.846" ry="199.559" transform="matrix(4.37114e-08 1 1 -4.37114e-08 771.243 -44.4026)" fill="url(#paint5_linear_1_316)"/></g><mask id="mask2_1_316" style="mask-type:alpha" maskUnits="userSpaceOnUse" x="0" y="0" width="687" height="312"><rect width="687" height="312" fill="#E0FF22"/></mask><g mask="url(#mask2_1_316)"><ellipse cx="257.296" cy="156.444" rx="200.846" ry="199.559" transform="rotate(90 257.296 156.444)" fill="url(#paint6_linear_1_316)"/><ellipse cx="469.198" cy="156.444" rx="200.846" ry="199.559" transform="rotate(90 469.198 156.444)" fill="url(#paint7_linear_1_316)"/><path d="M328.375 234.867C328.492 249.388 320.731 262.831 308.097 269.99L238.343 309.517L169.235 350.162C156.718 357.524 141.195 357.524 128.678 350.162L59.5695 309.517L-10.1845 269.99C-22.8181 262.831 -30.5796 249.387 -30.4627 234.867L-29.8172 154.695L-30.4627 74.5223C-30.5796 60.0018 -22.818 46.5584 -10.1845 39.3993L59.5696 -0.127816L128.678 -40.7729C141.195 -48.1344 156.718 -48.1345 169.235 -40.773L238.343 -0.127818L308.097 39.3994C320.731 46.5584 328.492 60.0018 328.375 74.5223L327.73 154.695L328.375 234.867Z" fill="url(#paint8_linear_1_316)"/><path d="M188.852 234.867C188.969 249.388 181.207 262.831 168.574 269.99L98.8197 309.517L29.7111 350.162C17.1945 357.524 1.67131 357.524 -10.8454 350.162L-79.9539 309.517L-149.708 269.99C-162.342 262.831 -170.103 249.387 -169.986 234.867L-169.341 154.695L-169.986 74.5223C-170.103 60.0018 -162.341 46.5584 -149.708 39.3993L-79.9539 -0.127816L-10.8454 -40.7729C1.67131 -48.1344 17.1944 -48.1345 29.7111 -40.773L98.8197 -0.127818L168.574 39.3994C181.207 46.5584 188.969 60.0018 188.852 74.5223L188.206 154.695L188.852 234.867Z" fill="url(#paint9_linear_1_316)"/></g><path d="M1405.72 234.867C1405.84 249.388 1398.08 262.831 1385.45 269.99L1315.69 309.517L1246.58 350.162C1234.07 357.524 1218.54 357.524 1206.03 350.162L1136.92 309.517L1067.16 269.99C1054.53 262.831 1046.77 249.387 1046.89 234.867L1047.53 154.695L1046.89 74.5223C1046.77 60.0018 1054.53 46.5584 1067.16 39.3993L1136.92 -0.127816L1206.03 -40.7729C1218.54 -48.1344 1234.07 -48.1345 1246.58 -40.773L1315.69 -0.127818L1385.45 39.3994C1398.08 46.5584 1405.84 60.0018 1405.72 74.5223L1405.08 154.695L1405.72 234.867Z" fill="url(#paint10_linear_1_316)"/><path d="M1186.41 234.867C1186.29 249.388 1194.05 262.831 1206.69 269.99L1276.44 309.517L1345.55 350.162C1358.07 357.524 1373.59 357.524 1386.11 350.162L1455.21 309.517L1524.97 269.99C1537.6 262.831 1545.36 249.387 1545.25 234.867L1544.6 154.695L1545.25 74.5223C1545.36 60.0018 1537.6 46.5584 1524.97 39.3993L1455.21 -0.127816L1386.11 -40.7729C1373.59 -48.1344 1358.07 -48.1345 1345.55 -40.773L1276.44 -0.127818L1206.69 39.3994C1194.05 46.5584 1186.29 60.0018 1186.41 74.5223L1187.05 154.695L1186.41 234.867Z" fill="url(#paint11_linear_1_316)"/><rect x="272" width="899" height="312" fill="url(#paint12_radial_1_316)"/></g><defs><linearGradient id="paint0_linear_1_316" x1="202.718" y1="35.118" x2="221.201" y2="423.884" gradientUnits="userSpaceOnUse"><stop stop-color="#37CCAB"/><stop offset="1" stop-color="#73F4D8"/></linearGradient><linearGradient id="paint1_linear_1_316" x1="202.718" y1="35.118" x2="221.201" y2="423.884" gradientUnits="userSpaceOnUse"><stop stop-color="#37CCAB"/><stop offset="1" stop-color="#73F4D8"/></linearGradient><linearGradient id="paint2_linear_1_316" x1="202.718" y1="35.118" x2="221.201" y2="423.884" gradientUnits="userSpaceOnUse"><stop stop-color="#37CCAB"/><stop offset="1" stop-color="#73F4D8"/></linearGradient><linearGradient id="paint3_linear_1_316" x1="202.718" y1="35.118" x2="221.201" y2="423.884" gradientUnits="userSpaceOnUse"><stop stop-color="#37CCAB"/><stop offset="1" stop-color="#73F4D8"/></linearGradient><linearGradient id="paint4_linear_1_316" x1="202.718" y1="35.118" x2="221.201" y2="423.884" gradientUnits="userSpaceOnUse"><stop stop-color="#37CCAB"/><stop offset="1" stop-color="#73F4D8"/></linearGradient><linearGradient id="paint5_linear_1_316" x1="202.718" y1="35.118" x2="221.201" y2="423.884" gradientUnits="userSpaceOnUse"><stop stop-color="#37CCAB"/><stop offset="1" stop-color="#73F4D8"/></linearGradient><linearGradient id="paint6_linear_1_316" x1="259.168" y1="-7.99718" x2="277.651" y2="380.769" gradientUnits="userSpaceOnUse"><stop stop-color="#37CCAB"/><stop offset="1" stop-color="#73F4D8"/></linearGradient><linearGradient id="paint7_linear_1_316" x1="471.07" y1="-7.99715" x2="489.552" y2="380.769" gradientUnits="userSpaceOnUse"><stop stop-color="#37CCAB"/><stop offset="1" stop-color="#73F4D8"/></linearGradient><linearGradient id="paint8_linear_1_316" x1="295.991" y1="241.817" x2="-63.5639" y2="56.5499" gradientUnits="userSpaceOnUse"><stop stop-color="#37CCAB"/><stop offset="1" stop-color="#73F4D8"/></linearGradient><linearGradient id="paint9_linear_1_316" x1="156.468" y1="241.817" x2="-203.087" y2="56.5499" gradientUnits="userSpaceOnUse"><stop offset="0.0196897" stop-color="#37CCAB"/><stop offset="0.468318" stop-color="#43D4B4"/><stop offset="1" stop-color="#73F4D8"/></linearGradient><linearGradient id="paint10_linear_1_316" x1="1373.34" y1="241.817" x2="1013.78" y2="56.5499" gradientUnits="userSpaceOnUse"><stop offset="0.0196897" stop-color="#37CCAB"/><stop offset="0.468318" stop-color="#43D4B4"/><stop offset="1" stop-color="#73F4D8"/></linearGradient><linearGradient id="paint11_linear_1_316" x1="1218.79" y1="241.817" x2="1578.35" y2="56.5499" gradientUnits="userSpaceOnUse"><stop stop-color="#37CCAB"/><stop offset="1" stop-color="#73F4D8"/></linearGradient><radialGradient id="paint12_radial_1_316" cx="0" cy="0" r="1" gradientUnits="userSpaceOnUse" gradientTransform="translate(721.5 156) rotate(180) scale(367.04 687.82)"><stop offset="0.458333" stop-color="#37CCAB"/><stop offset="1" stop-color="#37CCAB" stop-opacity="0"/></radialGradient><clipPath id="clip0_1_316"><rect width="1440" height="312" fill="white" transform="matrix(-1 0 0 1 1440 0)"/></clipPath></defs></svg>