<svg width="70" height="70" viewBox="0 0 70 70" fill="none" xmlns="http://www.w3.org/2000/svg">
<path d="M65.5618 44.8753C65.3946 44.4798 65.349 44.0436 65.431 43.6221C65.513 43.2007 65.7187 42.8133 66.022 42.5094L67.6588 40.8714L62.8843 36.0969L61.2452 37.7349C60.6253 38.3559 59.6961 38.5359 58.8366 38.1759C58.4424 38.014 58.1054 37.7383 57.8685 37.3841C57.6317 37.0298 57.5057 36.613 57.5068 36.1869V33.875H55.1995C55.1026 32.0949 54.7674 30.3358 54.2027 28.6449L67.2212 15.6264C68.0672 14.7851 68.738 13.7844 69.1947 12.6821C69.6514 11.5799 69.885 10.398 69.8818 9.20487C69.8818 4.19863 65.8082 0.125 60.802 0.125C58.3765 0.125 56.0961 1.07 54.3816 2.7845L41.3766 15.7906C39.6607 15.2218 37.8755 14.8883 36.07 14.7995C34.5175 12.0871 31.6003 10.25 28.2568 10.25C27.4007 10.25 26.575 10.3783 25.7886 10.6021C23.8468 6.9515 20.0747 4.625 15.8818 4.625C9.67859 4.625 4.63184 9.67175 4.63184 15.875C4.63184 16.7367 4.73759 17.585 4.92996 18.4152C3.54358 18.8357 2.32894 19.6905 1.46509 20.8535C0.601229 22.0165 0.13385 23.4263 0.131836 24.875C0.131836 28.5976 3.15921 31.625 6.88184 31.625H15.0426C14.8539 32.7401 14.7584 33.869 14.7568 35C14.7568 37.4761 15.2147 39.491 15.9538 41.2122L5.91771 51.2495L0.333211 65.7687C0.125434 66.3143 0.079881 66.9083 0.202043 67.4791C0.324205 68.05 0.608867 68.5733 1.02172 68.986C1.43457 69.3988 1.95798 69.6833 2.52886 69.8053C3.09974 69.9273 3.69373 69.8816 4.23921 69.6736L18.7585 64.0891L26.0968 56.7496C26.0417 56.9915 26.0068 57.2412 26.0068 57.5C26.0068 58.3674 26.3455 59.1515 26.8843 59.75C26.3221 60.3647 26.0092 61.167 26.0068 62C26.0068 63.5638 27.0812 64.871 28.5268 65.2513C29.4853 67.9962 32.0526 69.875 35.0068 69.875C37.9611 69.875 40.5283 67.9962 41.4868 65.2513C42.2068 65.0635 42.8445 64.6427 43.3003 64.0546C43.7562 63.4665 44.0046 62.7441 44.0068 62C44.0068 61.9156 43.9877 61.8369 43.9821 61.7548L45.3793 63.152L47.0185 61.514C47.6383 60.893 48.5642 60.7119 49.426 61.0708C49.8202 61.2337 50.1572 61.51 50.3941 61.8647C50.6311 62.2194 50.7573 62.6366 50.7568 63.0631V65.375H57.5068V63.0631C57.5068 62.1879 58.03 61.406 58.8816 61.0539C59.2768 60.8866 59.7129 60.841 60.1342 60.923C60.5555 61.0049 60.9427 61.2107 61.2463 61.514L62.8843 63.152L67.6588 58.3775L66.022 56.7395C65.4021 56.1185 65.221 55.1904 65.5798 54.3309C65.742 53.9365 66.0178 53.5994 66.3722 53.3624C66.7267 53.1254 67.1436 52.9992 67.57 53H69.8818V46.25H67.57C66.6947 46.25 65.914 45.7269 65.5618 44.8753ZM48.7048 48.1918C49.9322 46.9936 51.1618 45.7696 52.2227 44.3544C52.8334 44.1252 53.4796 44.0052 54.1318 44C57.2335 44 59.7568 46.5234 59.7568 49.625C59.7568 52.7266 57.2335 55.25 54.1318 55.25C51.0302 55.25 48.5068 52.7266 48.5068 49.625C48.5068 49.1379 48.5822 48.6586 48.7048 48.1918ZM50.056 21.5427L55.2568 16.3407L59.2911 20.375L53.2825 26.3836C52.4436 24.6243 51.357 22.9941 50.056 21.5427ZM51.2226 9.125L53.0068 7.34075L62.6661 17L60.8818 18.7843L51.2226 9.125ZM60.802 2.375C62.6126 2.37738 64.3484 3.09772 65.6288 4.37805C66.9091 5.65839 67.6295 7.39421 67.6318 9.20487C67.6343 10.1022 67.4588 10.991 67.1154 11.82C66.7721 12.649 66.2677 13.4017 65.6316 14.0345L64.2568 15.4093L54.5976 5.75L55.9723 4.37525C56.6052 3.7392 57.3579 3.23492 58.1869 2.89159C59.0159 2.54825 59.9047 2.37267 60.802 2.375ZM49.6318 10.7157L53.6661 14.75L48.4675 19.9486C47.0172 18.6463 45.3878 17.5586 43.6288 16.7188L49.6318 10.7157ZM53.0068 35C53.0068 40.8534 50.0593 43.7289 46.9386 46.772C44.7898 48.8679 42.5826 51.0346 41.2978 54.1925C41.0787 54.1477 40.8555 54.125 40.6318 54.125H36.1318V48.5C36.1318 46.6393 34.6176 45.125 32.7568 45.125H30.5068C30.2172 45.112 29.9437 44.9879 29.7433 44.7783C29.5429 44.5687 29.431 44.29 29.431 44C29.431 43.71 29.5429 43.4313 29.7433 43.2217C29.9437 43.0121 30.2172 42.888 30.5068 42.875H41.7568C43.6176 42.875 45.1318 41.3607 45.1318 39.5C45.1318 37.6393 43.6176 36.125 41.7568 36.125H32.7568C32.137 36.125 31.6318 35.621 31.6318 35V31.625H37.2568C40.3585 31.625 42.8818 29.1016 42.8818 26C42.8818 22.8984 40.3585 20.375 37.2568 20.375C37.2253 20.375 37.1961 20.384 37.1646 20.384C37.213 20.0082 37.2568 19.6325 37.2568 19.25C37.2538 18.531 37.1646 17.8149 36.9913 17.117C45.9598 18.116 53.0068 25.8132 53.0068 35ZM28.2568 57.5C28.2568 56.879 28.762 56.375 29.3818 56.375H40.6318C40.9215 56.388 41.195 56.5121 41.3954 56.7217C41.5958 56.9313 41.7076 57.21 41.7076 57.5C41.7076 57.79 41.5958 58.0687 41.3954 58.2783C41.195 58.4879 40.9215 58.612 40.6318 58.625H29.3818C28.762 58.625 28.2568 58.121 28.2568 57.5ZM14.0976 57.5L22.3675 49.2301C23.7512 50.6026 25.036 51.9909 25.9832 53.6817L18.1318 61.5342L14.0976 57.5ZM2.38184 24.875C2.38184 22.3932 4.40009 20.375 6.88184 20.375C9.36359 20.375 11.3818 22.3932 11.3818 24.875H13.6318C13.6318 21.2502 10.7575 18.2915 7.16984 18.1396C6.97802 17.4001 6.88124 16.639 6.88184 15.875C6.88184 10.9126 10.9195 6.875 15.8818 6.875C17.4813 6.87537 19.0515 7.3033 20.43 8.11448C21.8085 8.92566 22.945 10.0906 23.722 11.4886C22.5097 12.1966 21.4796 13.1783 20.7141 14.3551C19.9486 15.532 19.4689 16.8715 19.3131 18.2668C17.3488 18.7505 15.8818 20.5134 15.8818 22.625H18.1318C18.1318 21.3841 19.141 20.375 20.3818 20.375C21.6227 20.375 22.6318 21.3841 22.6318 22.625H24.8818C24.8818 20.5606 23.4778 18.836 21.58 18.3073C22.0412 15.0313 24.8548 12.5 28.2568 12.5C31.9795 12.5 35.0068 15.5274 35.0068 19.25C35.0068 19.8417 34.9101 20.4211 34.7593 20.9859C32.9143 21.9095 31.6318 23.7995 31.6318 26H33.8818C33.8818 24.1392 35.3961 22.625 37.2568 22.625C39.1176 22.625 40.6318 24.1392 40.6318 26C40.6318 27.8608 39.1176 29.375 37.2568 29.375H6.88184C4.40009 29.375 2.38184 27.3568 2.38184 24.875ZM29.3818 31.625V35C29.3818 36.8607 30.8961 38.375 32.7568 38.375H41.7568C42.0465 38.388 42.32 38.5121 42.5204 38.7217C42.7208 38.9313 42.8326 39.21 42.8326 39.5C42.8326 39.79 42.7208 40.0687 42.5204 40.2783C42.32 40.4879 42.0465 40.612 41.7568 40.625H30.5068C28.6461 40.625 27.1318 42.1393 27.1318 44C27.1318 45.8607 28.6461 47.375 30.5068 47.375H32.7568C33.3767 47.375 33.8818 47.879 33.8818 48.5V54.125H29.3818C29.1535 54.125 28.9307 54.1486 28.7158 54.1925C27.4311 51.0346 25.2238 48.8679 23.0751 46.772C19.9543 43.7289 17.0068 40.8534 17.0068 35C17.0068 33.8626 17.143 32.7354 17.3533 31.625H29.3818ZM20.761 47.6551L12.5068 55.9092L8.47259 51.875L17.0563 43.2912C18.1127 44.9495 19.4222 46.3333 20.761 47.6551ZM7.31046 53.8944L16.1125 62.6964L8.66046 65.5629L4.44396 61.3464L7.31046 53.8944ZM3.43259 67.5732C2.94546 67.7622 2.38184 67.3741 2.38184 66.8521C2.38184 66.7565 2.39984 66.6631 2.43246 66.5754L3.55971 63.6436L6.36209 66.446L3.43259 67.5732ZM35.0068 67.625C34.2079 67.6245 33.4228 67.417 32.728 67.0227C32.0331 66.6283 31.4524 66.0607 31.0423 65.375H38.9713C38.5613 66.0607 37.9805 66.6283 37.2857 67.0227C36.5909 67.417 35.8057 67.6245 35.0068 67.625ZM40.6318 63.125H29.3818C29.0922 63.112 28.8187 62.9879 28.6183 62.7783C28.4179 62.5687 28.306 62.29 28.306 62C28.306 61.71 28.4179 61.4313 28.6183 61.2217C28.8187 61.0121 29.0922 60.888 29.3818 60.875H40.6318C40.9215 60.888 41.195 61.0121 41.3954 61.2217C41.5958 61.4313 41.7076 61.71 41.7076 62C41.7076 62.29 41.5958 62.5687 41.3954 62.7783C41.195 62.9879 40.9215 63.112 40.6318 63.125ZM67.6318 50.75H67.57C65.7801 50.75 64.1826 51.8187 63.4851 53.5085C63.1453 54.3151 63.0537 55.2046 63.222 56.0635C63.3904 56.9224 63.811 57.7116 64.4301 58.3302L64.4773 58.3775L62.8843 59.9705L62.8371 59.9232C61.5681 58.6543 59.6736 58.2819 57.9782 58.9929C57.1717 59.3244 56.4822 59.8886 55.9975 60.6135C55.5129 61.3384 55.255 62.1911 55.2568 63.0631V63.125H53.0068V63.0631C53.0068 61.2733 51.9381 59.6758 50.2483 58.9771C49.4416 58.6368 48.5516 58.545 47.6924 58.7136C46.8332 58.8821 46.0438 59.3033 45.4255 59.9232L45.3782 59.9705L43.8538 58.4461C43.9438 58.1435 44.0068 57.8307 44.0068 57.5C44.0068 56.7012 43.7166 55.9767 43.2508 55.3974C43.9506 53.5085 45.0475 51.9976 46.3243 50.6026C46.8081 54.4839 50.1212 57.5 54.1318 57.5C58.4743 57.5 62.0068 53.9664 62.0068 49.625C62.0068 45.2836 58.4743 41.75 54.1318 41.75C54.0216 41.75 53.9147 41.7612 53.8056 41.7658C54.5672 40.1851 55.0903 38.3525 55.222 36.125H55.2568V36.1869C55.2568 37.9767 56.3256 39.5754 58.0142 40.2718C58.8208 40.6125 59.7108 40.7047 60.5701 40.5363C61.4293 40.3679 62.2188 39.9467 62.8371 39.3268L62.8843 39.2795L64.4773 40.8725L64.4301 40.9198C63.1633 42.1876 62.7921 44.081 63.4997 45.7775C63.831 46.5843 64.395 47.2741 65.1199 47.759C65.8449 48.2439 66.6978 48.5019 67.57 48.5H67.6318V50.75Z" fill="white"/>
</svg>
