<svg width="62" height="53" viewBox="0 0 62 53" fill="none" xmlns="http://www.w3.org/2000/svg">
<path d="M54.8799 15.9423L54.8798 15.9424L54.8839 15.9493L60.9286 26.2269C61.5727 27.3221 61.5727 28.6804 60.9286 29.7756L54.8839 40.0532L54.8839 40.0532L54.8799 40.0602L49.0015 50.4338C48.3751 51.5393 47.1988 52.2184 45.9283 52.2082L34.0053 52.1122L34.0053 52.1121L33.9972 52.1122L22.0742 52.2082C20.8037 52.2184 19.6274 51.5393 19.001 50.4338L13.1226 40.0602L13.1227 40.0602L13.1186 40.0532L7.07397 29.7756C6.42984 28.6804 6.42984 27.3221 7.07397 26.2269L13.1186 15.9493L13.1187 15.9493L13.1226 15.9423L19.001 5.56873C19.6274 4.46329 20.8037 3.78415 22.0742 3.79438L33.9972 3.89037L33.9972 3.89044L34.0053 3.89037L45.9283 3.79438C47.1988 3.78415 48.3751 4.46329 49.0015 5.56873L54.8799 15.9423Z" stroke="#37CCAB"/>
<path d="M39.9243 0.294397C41.3763 0.282707 42.7206 1.05886 43.4365 2.32222L49.3149 12.6958L55.3595 22.9735C56.0957 24.2251 56.0957 25.7774 55.3595 27.0291L49.3149 37.3067L43.4366 47.6803C42.7207 48.9437 41.3763 49.7198 39.9243 49.7082L28.0013 49.6122L16.0783 49.7082C14.6262 49.7198 13.2819 48.9437 12.566 47.6803L6.68761 37.3067L0.642984 27.0291C-0.0931646 25.7774 -0.0931655 24.2251 0.642983 22.9735L6.68761 12.6958L12.566 2.32222C13.2819 1.05887 14.6262 0.282707 16.0783 0.294397L28.0013 0.390388L39.9243 0.294397Z" fill="#37CCAB"/>
<path d="M27.5266 14.5439C22.5729 14.5439 18.5257 18.5911 18.5257 23.5449C18.5257 26.1351 19.6589 28.6281 21.5692 30.3118C22.9938 31.7364 22.8643 34.7798 22.8319 34.8122C22.8319 34.9741 22.8643 35.1036 22.9938 35.2331C23.0909 35.3303 23.2528 35.395 23.3823 35.395H31.6386C31.8004 35.395 31.9299 35.3303 32.0271 35.2331C32.1242 35.136 32.189 34.9741 32.189 34.8122C32.189 34.7798 32.0271 31.7364 33.4517 30.3118L33.5488 30.2146C35.4267 28.4986 36.5275 26.0703 36.5275 23.5449C36.5275 18.5911 32.4804 14.5439 27.5266 14.5439ZM32.707 29.4699C32.6746 29.5023 32.6099 29.5671 32.6099 29.5995C31.3472 30.9593 31.1205 33.1933 31.0881 34.2618H23.9327C23.9003 33.1933 23.6737 30.8622 22.3139 29.4699C20.5979 27.9806 19.5942 25.8113 19.5942 23.5125C19.5942 19.1415 23.1233 15.6124 27.4942 15.6124C31.8652 15.6124 35.3943 19.1415 35.3943 23.5125C35.3943 25.8113 34.423 27.9806 32.707 29.4699Z" fill="white"/>
<path d="M27.4943 16.8427C27.2029 16.8427 26.9439 17.1018 26.9439 17.3932C26.9439 17.6846 27.2029 17.9436 27.4943 17.9436C30.7644 17.9436 33.387 20.5985 33.387 23.8363C33.387 24.1277 33.646 24.3867 33.9374 24.3867C34.2288 24.3867 34.4878 24.1277 34.4878 23.8363C34.5202 19.9833 31.3796 16.8427 27.4943 16.8427ZM31.0882 36.0102H23.9004C23.1557 36.0102 22.5405 36.6253 22.5405 37.37C22.5405 38.1147 23.1557 38.7299 23.9004 38.7299H31.0558C31.8328 38.6975 32.448 38.1147 32.448 37.37C32.448 36.6253 31.8328 36.0102 31.0882 36.0102ZM31.0882 37.5967H23.9004C23.7709 37.5967 23.6414 37.4995 23.6414 37.3376C23.6414 37.1758 23.7385 37.0786 23.9004 37.0786H31.0558C31.1853 37.0786 31.3148 37.1758 31.3148 37.3376C31.3148 37.4995 31.2177 37.5967 31.0882 37.5967ZM30.0197 39.2803H24.9688C24.2241 39.2803 23.609 39.8955 23.609 40.6401C23.609 41.3848 24.2241 42 24.9688 42H30.0197C30.7644 42 31.3796 41.3848 31.3796 40.6401C31.3796 39.8631 30.7644 39.2803 30.0197 39.2803ZM30.0197 40.8668H24.9688C24.8393 40.8668 24.7098 40.7697 24.7098 40.6078C24.7098 40.4459 24.8069 40.3488 24.9688 40.3488H30.0197C30.1492 40.3488 30.2787 40.4459 30.2787 40.6078C30.2787 40.7697 30.1492 40.8668 30.0197 40.8668ZM27.4943 11.8566C27.818 11.8566 28.0447 11.5976 28.0447 11.3062V7.55042C28.0447 7.25902 27.7857 7 27.4943 7C27.2029 7 26.9439 7.25902 26.9439 7.55042V11.3062C26.9439 11.5976 27.2029 11.8566 27.4943 11.8566ZM36.6571 9.78446C36.3981 9.59019 36.0743 9.68733 35.9124 9.91397L33.8402 13.0222C33.646 13.2812 33.7107 13.6374 33.9698 13.7993C34.0669 13.864 34.164 13.8964 34.2612 13.8964C34.4554 13.8964 34.6173 13.7993 34.7144 13.6374L36.7866 10.5291C36.9809 10.3025 36.9161 9.94635 36.6571 9.78446ZM20.9217 13.7669C21.0188 13.7669 21.1159 13.7345 21.213 13.6698C21.4721 13.5079 21.5368 13.1517 21.3749 12.8927L19.3675 9.75208C19.2056 9.49306 18.8495 9.42831 18.5905 9.59019C18.3315 9.75208 18.2667 10.1082 18.4286 10.3673L20.436 13.5079C20.5655 13.7021 20.7274 13.7669 20.9217 13.7669ZM17.004 17.1989L13.7339 15.4181C13.4748 15.2886 13.1187 15.3858 12.9892 15.6448C12.8273 15.9038 12.9244 16.2599 13.2158 16.3895L16.4859 18.1702C16.5831 18.2026 16.6478 18.235 16.745 18.235C16.9392 18.235 17.1335 18.1378 17.2306 17.9436C17.3601 17.6846 17.263 17.3284 17.004 17.1989ZM42.0317 15.6448C41.9022 15.3858 41.5461 15.2886 41.2871 15.4181L37.9846 17.1989C37.7255 17.3284 37.6284 17.6846 37.7579 17.9436C37.855 18.1378 38.0493 18.235 38.2436 18.235C38.3407 18.235 38.4378 18.2026 38.5026 18.1702L41.8051 16.3895C42.0641 16.2599 42.1612 15.9038 42.0317 15.6448Z" fill="white"/>
</svg>
