<svg width="70" height="70" viewBox="0 0 70 70" fill="none" xmlns="http://www.w3.org/2000/svg">
<path d="M65.555 44.8753C65.3878 44.4798 65.3422 44.0436 65.4242 43.6221C65.5061 43.2007 65.7119 42.8133 66.0151 42.5094L67.652 40.8714L62.8775 36.0969L61.2384 37.7349C60.6185 38.3559 59.6893 38.5359 58.8298 38.1759C58.4355 38.014 58.0985 37.7383 57.8617 37.3841C57.6248 37.0298 57.4989 36.613 57.5 36.1869V33.875H55.1926C55.0958 32.0949 54.7605 30.3358 54.1959 28.6449L67.2144 15.6264C68.0604 14.7851 68.7312 13.7844 69.1879 12.6821C69.6446 11.5799 69.8781 10.398 69.875 9.20487C69.875 4.19863 65.8014 0.125 60.7951 0.125C58.3696 0.125 56.0892 1.07 54.3747 2.7845L41.3697 15.7906C39.6538 15.2218 37.8687 14.8883 36.0631 14.7995C34.5106 12.0871 31.5935 10.25 28.25 10.25C27.3939 10.25 26.5681 10.3783 25.7817 10.6021C23.84 6.9515 20.0679 4.625 15.875 4.625C9.67175 4.625 4.625 9.67175 4.625 15.875C4.625 16.7367 4.73075 17.585 4.92312 18.4152C3.53674 18.8357 2.32211 19.6905 1.45825 20.8535C0.594393 22.0165 0.127014 23.4263 0.125 24.875C0.125 28.5976 3.15237 31.625 6.875 31.625H15.0357C14.8471 32.7401 14.7515 33.869 14.75 35C14.75 37.4761 15.2079 39.491 15.947 41.2122L5.91088 51.2495L0.326375 65.7687C0.118598 66.3143 0.0730451 66.9083 0.195207 67.4791C0.317369 68.05 0.602031 68.5733 1.01488 68.986C1.42773 69.3988 1.95114 69.6833 2.52202 69.8053C3.09291 69.9273 3.68689 69.8816 4.23238 69.6736L18.7516 64.0891L26.09 56.7496C26.0349 56.9915 26 57.2412 26 57.5C26 58.3674 26.3386 59.1515 26.8775 59.75C26.3153 60.3647 26.0024 61.167 26 62C26 63.5638 27.0744 64.871 28.52 65.2513C29.4785 67.9962 32.0457 69.875 35 69.875C37.9543 69.875 40.5215 67.9962 41.48 65.2513C42.2 65.0635 42.8377 64.6427 43.2935 64.0546C43.7493 63.4665 43.9978 62.7441 44 62C44 61.9156 43.9809 61.8369 43.9753 61.7548L45.3725 63.152L47.0116 61.514C47.6315 60.893 48.5574 60.7119 49.4191 61.0708C49.8134 61.2337 50.1503 61.51 50.3873 61.8647C50.6242 62.2194 50.7505 62.6366 50.75 63.0631V65.375H57.5V63.0631C57.5 62.1879 58.0231 61.406 58.8747 61.0539C59.27 60.8866 59.7061 60.841 60.1274 60.923C60.5486 61.0049 60.9359 61.2107 61.2395 61.514L62.8775 63.152L67.652 58.3775L66.0151 56.7395C65.3952 56.1185 65.2141 55.1904 65.573 54.3309C65.7351 53.9365 66.011 53.5994 66.3654 53.3624C66.7198 53.1254 67.1368 52.9992 67.5631 53H69.875V46.25H67.5631C66.6879 46.25 65.9071 45.7269 65.555 44.8753ZM48.698 48.1918C49.9254 46.9936 51.155 45.7696 52.2159 44.3544C52.8265 44.1252 53.4728 44.0052 54.125 44C57.2266 44 59.75 46.5234 59.75 49.625C59.75 52.7266 57.2266 55.25 54.125 55.25C51.0234 55.25 48.5 52.7266 48.5 49.625C48.5 49.1379 48.5754 48.6586 48.698 48.1918ZM50.0491 21.5427L55.25 16.3407L59.2842 20.375L53.2756 26.3836C52.4367 24.6243 51.3502 22.9941 50.0491 21.5427ZM51.2158 9.125L53 7.34075L62.6592 17L60.875 18.7843L51.2158 9.125ZM60.7951 2.375C62.6058 2.37738 64.3416 3.09772 65.6219 4.37805C66.9023 5.65839 67.6226 7.39421 67.625 9.20487C67.6274 10.1022 67.4519 10.991 67.1086 11.82C66.7652 12.649 66.2609 13.4017 65.6247 14.0345L64.25 15.4093L54.5908 5.75L55.9655 4.37525C56.5984 3.7392 57.3511 3.23492 58.18 2.89159C59.009 2.54825 59.8979 2.37267 60.7951 2.375ZM49.625 10.7157L53.6592 14.75L48.4606 19.9486C47.0104 18.6463 45.3809 17.5586 43.622 16.7188L49.625 10.7157ZM53 35C53 40.8534 50.0525 43.7289 46.9317 46.772C44.783 48.8679 42.5757 51.0346 41.291 54.1925C41.0718 54.1477 40.8487 54.125 40.625 54.125H36.125V48.5C36.125 46.6393 34.6107 45.125 32.75 45.125H30.5C30.2103 45.112 29.9368 44.9879 29.7364 44.7783C29.536 44.5687 29.4242 44.29 29.4242 44C29.4242 43.71 29.536 43.4313 29.7364 43.2217C29.9368 43.0121 30.2103 42.888 30.5 42.875H41.75C43.6107 42.875 45.125 41.3607 45.125 39.5C45.125 37.6393 43.6107 36.125 41.75 36.125H32.75C32.1301 36.125 31.625 35.621 31.625 35V31.625H37.25C40.3516 31.625 42.875 29.1016 42.875 26C42.875 22.8984 40.3516 20.375 37.25 20.375C37.2185 20.375 37.1893 20.384 37.1577 20.384C37.2061 20.0082 37.25 19.6325 37.25 19.25C37.2469 18.531 37.1578 17.8149 36.9845 17.117C45.953 18.116 53 25.8132 53 35ZM28.25 57.5C28.25 56.879 28.7551 56.375 29.375 56.375H40.625C40.9147 56.388 41.1882 56.5121 41.3886 56.7217C41.589 56.9313 41.7008 57.21 41.7008 57.5C41.7008 57.79 41.589 58.0687 41.3886 58.2783C41.1882 58.4879 40.9147 58.612 40.625 58.625H29.375C28.7551 58.625 28.25 58.121 28.25 57.5ZM14.0907 57.5L22.3606 49.2301C23.7444 50.6026 25.0291 51.9909 25.9764 53.6817L18.125 61.5342L14.0907 57.5ZM2.375 24.875C2.375 22.3932 4.39325 20.375 6.875 20.375C9.35675 20.375 11.375 22.3932 11.375 24.875H13.625C13.625 21.2502 10.7506 18.2915 7.163 18.1396C6.97118 17.4001 6.8744 16.639 6.875 15.875C6.875 10.9126 10.9126 6.875 15.875 6.875C17.4744 6.87537 19.0447 7.3033 20.4231 8.11448C21.8016 8.92566 22.9382 10.0906 23.7151 11.4886C22.5028 12.1966 21.4728 13.1783 20.7073 14.3551C19.9418 15.532 19.462 16.8715 19.3062 18.2668C17.342 18.7505 15.875 20.5134 15.875 22.625H18.125C18.125 21.3841 19.1341 20.375 20.375 20.375C21.6159 20.375 22.625 21.3841 22.625 22.625H24.875C24.875 20.5606 23.471 18.836 21.5731 18.3073C22.0344 15.0313 24.848 12.5 28.25 12.5C31.9726 12.5 35 15.5274 35 19.25C35 19.8417 34.9033 20.4211 34.7525 20.9859C32.9075 21.9095 31.625 23.7995 31.625 26H33.875C33.875 24.1392 35.3893 22.625 37.25 22.625C39.1107 22.625 40.625 24.1392 40.625 26C40.625 27.8608 39.1107 29.375 37.25 29.375H6.875C4.39325 29.375 2.375 27.3568 2.375 24.875ZM29.375 31.625V35C29.375 36.8607 30.8892 38.375 32.75 38.375H41.75C42.0397 38.388 42.3132 38.5121 42.5136 38.7217C42.714 38.9313 42.8258 39.21 42.8258 39.5C42.8258 39.79 42.714 40.0687 42.5136 40.2783C42.3132 40.4879 42.0397 40.612 41.75 40.625H30.5C28.6392 40.625 27.125 42.1393 27.125 44C27.125 45.8607 28.6392 47.375 30.5 47.375H32.75C33.3699 47.375 33.875 47.879 33.875 48.5V54.125H29.375C29.1466 54.125 28.9239 54.1486 28.709 54.1925C27.4243 51.0346 25.217 48.8679 23.0682 46.772C19.9475 43.7289 17 40.8534 17 35C17 33.8626 17.1361 32.7354 17.3465 31.625H29.375ZM20.7541 47.6551L12.5 55.9092L8.46575 51.875L17.0495 43.2912C18.1059 44.9495 19.4154 46.3333 20.7541 47.6551ZM7.30363 53.8944L16.1056 62.6964L8.65363 65.5629L4.43713 61.3464L7.30363 53.8944ZM3.42575 67.5732C2.93863 67.7622 2.375 67.3741 2.375 66.8521C2.375 66.7565 2.393 66.6631 2.42563 66.5754L3.55288 63.6436L6.35525 66.446L3.42575 67.5732ZM35 67.625C34.2011 67.6245 33.4159 67.417 32.7211 67.0227C32.0263 66.6283 31.4456 66.0607 31.0355 65.375H38.9645C38.5544 66.0607 37.9737 66.6283 37.2789 67.0227C36.5841 67.417 35.7989 67.6245 35 67.625ZM40.625 63.125H29.375C29.0853 63.112 28.8118 62.9879 28.6114 62.7783C28.411 62.5687 28.2992 62.29 28.2992 62C28.2992 61.71 28.411 61.4313 28.6114 61.2217C28.8118 61.0121 29.0853 60.888 29.375 60.875H40.625C40.9147 60.888 41.1882 61.0121 41.3886 61.2217C41.589 61.4313 41.7008 61.71 41.7008 62C41.7008 62.29 41.589 62.5687 41.3886 62.7783C41.1882 62.9879 40.9147 63.112 40.625 63.125ZM67.625 50.75H67.5631C65.7732 50.75 64.1758 51.8187 63.4782 53.5085C63.1385 54.3151 63.0469 55.2046 63.2152 56.0635C63.3835 56.9224 63.8041 57.7116 64.4232 58.3302L64.4705 58.3775L62.8775 59.9705L62.8302 59.9232C61.5612 58.6543 59.6667 58.2819 57.9714 58.9929C57.1649 59.3244 56.4754 59.8886 55.9907 60.6135C55.506 61.3384 55.2482 62.1911 55.25 63.0631V63.125H53V63.0631C53 61.2733 51.9313 59.6758 50.2415 58.9771C49.4348 58.6368 48.5448 58.545 47.6856 58.7136C46.8263 58.8821 46.037 59.3033 45.4186 59.9232L45.3714 59.9705L43.847 58.4461C43.937 58.1435 44 57.8307 44 57.5C44 56.7012 43.7097 55.9767 43.244 55.3974C43.9437 53.5085 45.0406 51.9976 46.3175 50.6026C46.8013 54.4839 50.1144 57.5 54.125 57.5C58.4675 57.5 62 53.9664 62 49.625C62 45.2836 58.4675 41.75 54.125 41.75C54.0148 41.75 53.9079 41.7612 53.7987 41.7658C54.5604 40.1851 55.0835 38.3525 55.2151 36.125H55.25V36.1869C55.25 37.9767 56.3187 39.5754 58.0074 40.2718C58.814 40.6125 59.7039 40.7047 60.5632 40.5363C61.4225 40.3679 62.2119 39.9467 62.8302 39.3268L62.8775 39.2795L64.4705 40.8725L64.4232 40.9198C63.1565 42.1876 62.7852 44.081 63.4929 45.7775C63.8241 46.5843 64.3882 47.2741 65.1131 47.759C65.838 48.2439 66.691 48.5019 67.5631 48.5H67.625V50.75Z" fill="white"/>
</svg>
